<?xml version="1.0" encoding="utf-8"?>
<!-- Generator: Adobe Illustrator 26.0.3, SVG Export Plug-In . SVG Version: 6.00 Build 0)  -->
<svg version="1.1" id="Слой_1" xmlns="http://www.w3.org/2000/svg" xmlns:xlink="http://www.w3.org/1999/xlink" x="0px" y="0px"
	 viewBox="0 0 324.7 324.7" style="enable-background:new 0 0 324.7 324.7;" xml:space="preserve">
<path fill="#ff3939" d="M162.4,0C72.9,0,0,72.8,0,162.3c0,89.6,72.9,162.4,162.4,162.4s162.4-72.8,162.4-162.4C324.7,72.8,251.9,0,162.4,0L162.4,0z
	 M162.4,270.5c-11.2,0-20.3-9.1-20.3-20.3c0-11.2,9.1-20.3,20.3-20.3c11.2,0,20.3,9.1,20.3,20.3
	C182.7,261.5,173.5,270.5,162.4,270.5z M175.9,210.3c-0.3,3.4-3.2,6.1-6.8,6.1h-13.5c-3.5,0-6.4-2.6-6.8-6.1L135.3,68.3
	c0-15.6,12.1-27.7,27.1-27.7s27.1,12.2,27.1,27.1L175.9,210.3z"/>
</svg>
