<?xml version="1.0" encoding="utf-8"?>
<!-- Generator: Adobe Illustrator 26.0.3, SVG Export Plug-In . SVG Version: 6.00 Build 0)  -->
<svg version="1.1" id="Слой_1" xmlns="http://www.w3.org/2000/svg" xmlns:xlink="http://www.w3.org/1999/xlink" x="0px" y="0px"
	 viewBox="0 0 284.1 284.1" style="enable-background:new 0 0 284.1 284.1;" xml:space="preserve">
<path fill="#3bb54a" d="M142.1,0C63.1,0,0,63.1,0,142.1s63.1,142.1,142.1,142.1S284.1,221,284.1,142.1S221,0,142.1,0z M216.3,105.8l-86.8,94.7
	c-3.2,3.2-7.9,4.7-11,4.7s-7.9-1.6-11.1-4.7l-39.5-42.6c-6.3-6.3-4.7-15.8,1.6-22.1c6.3-6.3,15.8-4.7,22.1,1.6l26.8,30l75.8-82.1
	c6.3-6.3,15.8-6.3,22.1-1.6C222.6,88.4,222.6,99.5,216.3,105.8L216.3,105.8z"/>
</svg>
